<svg xmlns="http://www.w3.org/2000/svg" width="32" height="32"><path d="M16.026 7.015a8.076 6.916 0 0 0-8.052 6.916h.624c-.054.216-.107.432-.155.666-7.5.17-7.3 8.89-4.343 10.39h6.287l4.172-.044v.003h2.88v-.003l4.173.043H27.9c2.957-1.5 3.157-10.22-4.343-10.39-.05-.247-.108-.476-.165-.702l.733-.005a8.076 6.916 0 0 0-8.1-6.873z" color="#000" stroke="#000" stroke-width="1.50825" stroke-linecap="round" overflow="visible"/><text transform="matrix(.9 0 0 .63 -19.5 1.11)" y="35.157" x="29.847" style="line-height:125%;-inkscape-font-specification:Impact Condensed" font-size="16.505" font-stretch="condensed" letter-spacing="0" word-spacing="0" fill="#fff" font-family="Impact"><tspan y="35.157" x="29.847">CO</tspan></text><text transform="matrix(.84 0 0 .67 -19.5 1.11)" y="35.014" x="51.241" style="line-height:125%;-inkscape-font-specification:Impact Condensed" font-size="6.728" font-stretch="condensed" letter-spacing="0" word-spacing="0" fill="#fff" font-family="Impact"><tspan y="35.014" x="51.241">2</tspan></text><path d="M17.062 8.604c3.21.303 5.582 2.413 5.467 4.862" color="#000" stroke="#fff" stroke-width=".9217500000000001" overflow="visible"/></svg>