<svg xmlns="http://www.w3.org/2000/svg" width="32" height="32"><path d="M15.906 9.44c-2.795-.006-5.093 2.22-5.158 5.025v.12c0 .853-.004 1.59.803 2.772.324.474 1.342 1.91 1.746 2.448 1.67 2.224 1.048 4.996 2.61 5.07V9.44zm.002 0v15.436c1.563-.075.94-2.847 2.61-5.07.404-.54 1.422-1.975 1.746-2.45.806-1.18.804-1.918.804-2.772v-.12c-.066-2.803-2.364-5.03-5.16-5.024z"/><path d="M13.058 20.715h5.57M13.81 21.796l4.195 1.048M13.975 23.074l4.194 1.048" fill="#0ff" fill-rule="evenodd" stroke="#fff" stroke-width=".6290640000000001" stroke-opacity=".941"/><path d="M15.5 20.225l-1.966-5.898s2.03 2.425 2.424 1.05" fill="none" stroke="#fff" stroke-width=".6290640000000001" stroke-opacity=".941"/><path d="M16.32 20.225l1.965-5.898s-2.03 2.425-2.424 1.05" fill="none" stroke="#fff" stroke-width=".6290640000000001" stroke-opacity=".941"/><path d="M8.06 15.263c.06-4.335 3.626-7.8 7.96-7.737 4.336.063 7.8 3.627 7.738 7.962-.006.45-.05.896-.134 1.337" color="#000" stroke="#000" stroke-width="1.31055" stroke-dasharray="2.5, 5" overflow="visible" fill="none"/></svg>