<svg xmlns="http://www.w3.org/2000/svg" width="32" height="32"><path d="M15.965 10.588a4.89 4.187 0 0 0-4.876 4.187h.377c-.032.13-.064.26-.094.402-4.54.103-4.42 5.383-2.63 6.29h3.807l2.526-.025v.002H16.823v-.002l2.526.026h3.806c1.79-.908 1.912-6.188-2.63-6.29-.03-.15-.065-.29-.1-.426l.445-.003a4.89 4.187 0 0 0-4.905-4.163z" color="#000" stroke="#000" stroke-width=".9132353200000001" stroke-linecap="round" overflow="visible"/><text transform="matrix(.54 0 0 .38 -5.54 7.01)" y="35.157" x="29.847" style="line-height:125%;-inkscape-font-specification:Impact Condensed" font-size="16.505" font-stretch="condensed" letter-spacing="0" word-spacing="0" fill="#fff" font-family="Impact"><tspan y="35.157" x="29.847">CO</tspan></text><text transform="matrix(.5 0 0 .4 -5.54 7.01)" y="35.014" x="51.241" style="line-height:125%;-inkscape-font-specification:Impact Condensed" font-size="6.728" font-stretch="condensed" letter-spacing="0" word-spacing="0" fill="#fff" font-family="Impact"><tspan y="35.014" x="51.241">2</tspan></text><path d="M16.592 11.55c1.943.183 3.38 1.46 3.31 2.944" color="#000" stroke="#fff" stroke-width=".55811348" overflow="visible"/></svg>