<svg xmlns="http://www.w3.org/2000/svg" width="32" height="32"><path d="M14.257 17.912a3.65 3.65 0 0 0-3.65 3.65 3.65 3.65 0 0 0 3.65 3.65 3.65 3.65 0 0 0 3.65-3.65 3.65 3.65 0 0 0-3.65-3.65zm0 .78a2.98 2.87 0 0 1 2.98 2.87 2.98 2.87 0 0 1-2.98 2.87 2.98 2.87 0 0 1-2.98-2.87 2.98 2.87 0 0 1 2.98-2.87z" color="#000" stroke="#000" stroke-width=".58174582" overflow="visible"/><path d="M14.233 6.346c-.848.01-1.525.59-1.512 1.295v10.522c-.028.85 3.174.757 3.072 0V7.642c.013-.72-.693-1.306-1.56-1.296z" style="text-indent:0;text-align:start;line-height:normal;text-transform:none;block-progression:tb" color="#000" fill-rule="evenodd" overflow="visible" font-family="sans-serif"/><path d="M14.257 21.208v-9.685" fill="#0ff" fill-rule="evenodd" stroke="#fff" stroke-width=".7800525" stroke-opacity=".941"/><path d="M17.278 8.122h5.2M17.278 9.682h2.6M17.278 11.242h5.2M17.278 12.802h2.6M17.278 14.362h5.2M17.278 15.922h2.6" fill="none" stroke="#000" stroke-width=".832"/></svg>