<?xml version="1.0" encoding="UTF-8" standalone="no"?>
<!-- Created with Inkscape (http://www.inkscape.org/) -->

<svg
   xmlns:dc="http://purl.org/dc/elements/1.1/"
   xmlns:cc="http://creativecommons.org/ns#"
   xmlns:rdf="http://www.w3.org/1999/02/22-rdf-syntax-ns#"
   xmlns:svg="http://www.w3.org/2000/svg"
   xmlns="http://www.w3.org/2000/svg"
   xmlns:sodipodi="http://sodipodi.sourceforge.net/DTD/sodipodi-0.dtd"
   xmlns:inkscape="http://www.inkscape.org/namespaces/inkscape"
   width="32px"
   height="32px"
   id="svg4181"
   version="1.1"
   inkscape:version="0.48.3.1 r9886"
   sodipodi:docname="icon-light.svg">
  <defs
     id="defs4183" />
  <sodipodi:namedview
     id="base"
     pagecolor="#ffffff"
     bordercolor="#666666"
     borderopacity="1.0"
     inkscape:pageopacity="0.0"
     inkscape:pageshadow="2"
     inkscape:zoom="5.598901"
     inkscape:cx="49.607067"
     inkscape:cy="18.400711"
     inkscape:current-layer="layer1"
     showgrid="true"
     inkscape:grid-bbox="true"
     inkscape:document-units="px"
     inkscape:window-width="1920"
     inkscape:window-height="1147"
     inkscape:window-x="0"
     inkscape:window-y="31"
     inkscape:window-maximized="1" />
  <metadata
     id="metadata4186">
    <rdf:RDF>
      <cc:Work
         rdf:about="">
        <dc:format>image/svg+xml</dc:format>
        <dc:type
           rdf:resource="http://purl.org/dc/dcmitype/StillImage" />
        <dc:title />
      </cc:Work>
    </rdf:RDF>
  </metadata>
  <g
     id="layer1"
     inkscape:label="Layer 1"
     inkscape:groupmode="layer">
    <g
       id="g4850"
       transform="matrix(0.69896004,0,0,0.69896004,-2.5670945,5.3661967)">
      <path
         inkscape:connector-curvature="0"
         id="path4332-9"
         d="m 26.42975,5.8287587 c -3.999637,-0.0087 -7.287195,3.1769775 -7.379887,7.1894543 l -0.0015,0.16992 c 0,1.221855 -0.0038,2.276145 1.149907,3.966795 0.462923,0.678578 1.91946,2.732738 2.497553,3.50244 2.39034,3.182625 1.498425,7.148655 3.73389,7.25538 l 0,-22.0839893 z m 0.003,0 0,22.0839893 c 2.235458,-0.106725 1.34355,-4.072755 3.733883,-7.25538 0.578092,-0.769702 2.03463,-2.823862 2.49756,-3.50244 1.153335,-1.69065 1.1499,-2.74494 1.1499,-3.966795 l -0.0015,-0.16992 C 33.719945,9.0057362 30.432388,5.8200587 26.43275,5.8287587 z"
         style="fill:#000000;fill-opacity:1" />
      <path
         inkscape:connector-curvature="0"
         id="path4373-5"
         d="m 22.35455,21.958813 7.96875,0"
         style="fill:#00ffff;fill-opacity:1;fill-rule:evenodd;stroke:#ffffff;stroke-width:0.90000004;stroke-linecap:butt;stroke-linejoin:miter;stroke-miterlimit:4;stroke-opacity:0.94117647;stroke-dasharray:none" />
      <path
         inkscape:connector-curvature="0"
         id="path4389-8"
         d="m 23.432675,23.505688 6,1.5"
         style="fill:#00ffff;fill-rule:evenodd;stroke:#ffffff;stroke-width:0.90000004;stroke-linecap:butt;stroke-linejoin:miter;stroke-miterlimit:4;stroke-opacity:0.94117647;stroke-dasharray:none" />
      <path
         inkscape:connector-curvature="0"
         id="path4389-4-94"
         d="m 23.66705,25.333806 6,1.5"
         style="fill:#00ffff;fill-rule:evenodd;stroke:#ffffff;stroke-width:0.90000004;stroke-linecap:butt;stroke-linejoin:miter;stroke-miterlimit:4;stroke-opacity:0.94117647;stroke-dasharray:none" />
      <path
         inkscape:connector-curvature="0"
         id="path4406-8"
         d="m 25.847743,21.257991 -2.8125,-8.4375 c 0,0 2.90625,3.46875 3.46875,1.5"
         style="fill:none;stroke:#ffffff;stroke-width:0.90000004;stroke-linecap:butt;stroke-linejoin:miter;stroke-miterlimit:4;stroke-opacity:0.94117647;stroke-dasharray:none" />
      <path
         inkscape:connector-curvature="0"
         id="path4406-1-3"
         d="m 27.02105,21.257991 2.8125,-8.4375 c 0,0 -2.90625,3.46875 -3.46875,1.5"
         style="fill:none;stroke:#ffffff;stroke-width:0.90000004;stroke-linecap:butt;stroke-linejoin:miter;stroke-miterlimit:4;stroke-opacity:0.94117647;stroke-dasharray:none" />
      <path
         sodipodi:open="true"
         d="m 110.56,179.69758 c 0.11835,-8.26955 6.91808,-14.8774 15.18763,-14.75906 8.26955,0.11835 14.87741,6.91808 14.75906,15.18763 -0.0122,0.85568 -0.0978,1.70875 -0.25578,2.54981"
         sodipodi:end="6.4688322"
         sodipodi:start="3.1559027"
         sodipodi:ry="14.974877"
         sodipodi:rx="14.974877"
         sodipodi:cy="179.91187"
         sodipodi:cx="125.53335"
         sodipodi:type="arc"
         id="path4424-4"
         style="color:#000000;fill:#000000;fill-opacity:0;fill-rule:nonzero;stroke:#000000;stroke-width:2.5;stroke-linecap:butt;stroke-linejoin:miter;stroke-miterlimit:4;stroke-opacity:1;stroke-dasharray:2.5, 5;stroke-dashoffset:0;visibility:visible;display:inline;overflow:visible;enable-background:accumulate"
         transform="matrix(0.75,0,0,0.75,-67.716839,-120.6132)" />
    </g>
  </g>
</svg>
