<svg xmlns="http://www.w3.org/2000/svg" width="32" height="32"><path d="M15.996 6.796c-4-.008-7.287 3.177-7.38 7.19v.17c0 1.222-.005 2.276 1.15 3.967.46.678 1.918 2.732 2.496 3.502 2.39 3.183 1.498 7.15 3.734 7.255V6.796zm.003 0V28.88c2.234-.106 1.343-4.072 3.733-7.255.578-.77 2.035-2.824 2.497-3.502 1.154-1.69 1.15-2.745 1.15-3.967v-.17C23.285 9.973 20 6.788 16 6.796z"/><path d="M11.92 22.926h7.97M13 24.473l6 1.5M13.233 26.3l6 1.5" fill="#0ff" fill-rule="evenodd" stroke="#fff" stroke-width=".9" stroke-opacity=".941"/><path d="M15.414 22.226L12.6 13.788s2.908 3.47 3.47 1.5" fill="none" stroke="#fff" stroke-width=".9" stroke-opacity=".941"/><path d="M16.587 22.226l2.813-8.438s-2.906 3.47-3.47 1.5" fill="none" stroke="#fff" stroke-width=".9" stroke-opacity=".941"/><path d="M4.77 15.128C4.857 8.925 9.957 3.97 16.16 4.058c6.202.09 11.158 5.19 11.07 11.39-.01.643-.074 1.283-.192 1.913" color="#000" stroke="#000" stroke-width="1.875" stroke-dasharray="2.5, 5" overflow="visible" fill="none"/></svg>