<svg xmlns="http://www.w3.org/2000/svg" width="145" height="95"><path stroke="#fff" stroke-width="4.651" d="M3.153 963.417h142.013v90.41H3.153z" transform="matrix(1 0 0 1.02 -1.78 -979.95)"/><g fill="none" stroke="#fff"><path d="M2.35 965.763s72.023 80.66 141.74 0v85.142s-61.65-70.802-141.74 0zM15.747 977.638l.288 62.064M30.583 987.72v42.796M44.844 995.115l-.144 29.127M59.104 1020.657l-.144-20.613M73.365 1001.388v17.477M87.77 1019.76l.143-19.268M101.886 997.13l.144 25.992M116.29 989.513l.576 40.554M130.55 978.758l.433 59.6M102.007 1021.43l.05 2.297M131.036 1039.174v-1.347M2.823 1009.53l141.308.673M2.98 1009.554l-.612.08M143.896 989.275c-45.946 22.35-93.26 20.26-141.375 3.802M143.896 989.275c-45.946 22.35-93.26 20.26-141.375 3.802M2.383 1030.347c45.946-22.35 93.26-20.26 141.375-3.803" transform="matrix(.78 0 0 .76 16.83 -721.78)"/><path d="M1.88 965.092s72.023 80.66 141.74 0v85.142s-61.65-70.802-141.74 0zM15.277 976.967l.288 62.064M30.113 987.05v42.795M44.374 994.444l-.144 29.127M58.634 1019.986l-.144-20.613M72.895 1000.717v17.477M87.3 1019.09l.143-19.27M101.416 996.46l.144 25.99M115.82 988.842l.576 40.554M130.08 978.087l.433 59.6M101.537 1020.758l.05 2.298M130.566 1038.503v-1.347M2.353 1008.86l141.308.672M2.51 1008.883l-.612.08M143.426 988.604c-45.946 22.35-93.26 20.26-141.375 3.802M143.426 988.604c-45.946 22.35-93.26 20.26-141.375 3.802M1.913 1029.676c45.946-22.35 93.26-20.26 141.375-3.803" transform="matrix(.78 0 0 .76 16.83 -721.78)"/><path d="M1.88 966.102s72.023 80.66 141.74 0v85.142s-61.65-70.802-141.74 0zM15.277 977.977l.288 62.064M30.113 988.06v42.795M44.374 995.454l-.144 29.127M58.634 1020.996l-.144-20.613M72.895 1001.727v17.477M87.3 1020.1l.143-19.27M101.416 997.47l.144 25.99M115.82 989.852l.576 40.555M130.08 979.098l.433 59.6M101.537 1021.77l.05 2.296M130.566 1039.513v-1.347M2.353 1009.87l141.308.673M2.51 1009.894l-.612.08M143.426 989.614c-45.946 22.35-93.26 20.26-141.375 3.803M143.426 989.614c-45.946 22.35-93.26 20.26-141.375 3.803M1.913 1030.686c45.946-22.35 93.26-20.26 141.375-3.802" transform="matrix(.78 0 0 .76 16.83 -721.78)"/></g><text transform="matrix(.95 0 0 1.08 -1.78 -979.95)" y="969.543" x="23.707" style="text-align:start;line-height:125%;-inkscape-font-specification:Sans Bold Italic" font-size="53.662" font-style="italic" font-weight="bold" letter-spacing="0" word-spacing="0" fill="#fff" font-family="Sans"><tspan y="969.543" x="23.707">360</tspan></text></svg>