<svg xmlns="http://www.w3.org/2000/svg" width="32" height="32"><g transform="matrix(.75 0 0 .75 1.53 6.47)" stroke="#000"><circle r="2.317" cy="342.558" cx="125.592" transform="translate(-111.45 -338.68)" color="#000" stroke-width=".741" overflow="visible"/><path d="M.32 29.68l7.376-6.77L12.95 7.93M9.633 20.135l4.125 3.625 3.08 7.036" fill="none" stroke-width="3"/><path d="M13.526 8.602l.875 4.125M11.874 8.255L7.872 9.992l-3.514 6.88" fill="none" stroke-width="1.75"/><path d="M14.03 12.252l4.582 3.264" fill="#fff" fill-rule="evenodd" stroke-width="1.648"/><path d="M38.76 3.037c-4.484.17-8.263-3.16-8.44-7.436-.022-.493.007-.987.085-1.475M38.12 10.413c-7.988.303-14.72-5.628-15.038-13.247-.037-.88.014-1.76.154-2.63M14.05-1.928a23.302 20.746 0 0 1 .265-3.04M38.276 18.89a23.302 20.746 0 0 1-14.732-4.02" color="#000" fill="none" stroke-width="2" overflow="visible"/></g></svg>