<svg xmlns="http://www.w3.org/2000/svg" width="32" height="32"><path d="M16 18.866a5.264 5.264 0 0 0-5.264 5.265A5.264 5.264 0 0 0 16 29.395a5.264 5.264 0 0 0 5.264-5.263A5.264 5.264 0 0 0 16 18.867zm0 1.124a4.298 4.14 0 0 1 4.298 4.14A4.298 4.14 0 0 1 16 28.273a4.298 4.14 0 0 1-4.298-4.14A4.298 4.14 0 0 1 16 19.99z" color="#000" stroke="#000" stroke-width=".839" overflow="visible"/><path d="M15.965 2.186c-1.223.016-2.2.852-2.18 1.868v15.173c-.043 1.225 4.576 1.092 4.428 0V4.054c.018-1.038-1-1.883-2.248-1.868z" style="text-indent:0;text-align:start;line-height:normal;text-transform:none;block-progression:tb" color="#000" fill-rule="evenodd" overflow="visible" font-family="sans-serif"/><path d="M16 23.62V9.652" fill="#0ff" fill-rule="evenodd" stroke="#fff" stroke-width="1.125" stroke-opacity=".941"/><path d="M20.357 4.747h7.5M20.357 6.997h3.75M20.357 9.247h7.5M20.357 11.497h3.75M20.357 13.747h7.5M20.357 15.997h3.75" fill="none" stroke="#000" stroke-width="1.2"/></svg>