<?xml version="1.0" encoding="UTF-8"?>
<svg xmlns="http://www.w3.org/2000/svg" height="1000" width="928.571"><path d="M71.424 928.576h160.704v-160.704h-160.704v160.704zm196.416 0h178.56v-160.704h-178.56v160.704zm-196.416 -196.416h160.704v-178.56h-160.704v178.56zm196.416 0h178.56v-178.56h-178.56v178.56zm-196.416 -214.272h160.704v-160.704h-160.704v160.704zm410.688 410.688h178.56v-160.704h-178.56v160.704zm-214.272 -410.688h178.56v-160.704h-178.56v160.704zm428.544 410.688h160.704v-160.704h-160.704v160.704zm-214.272 -196.416h178.56v-178.56h-178.56v178.56zm-196.416 -482.112v-160.704q0 -7.254 -5.301 -12.555t-12.555 -5.301h-35.712q-7.254 0 -12.555 5.301t-5.301 12.555v160.704q0 7.254 5.301 12.555t12.555 5.301h35.712q7.254 0 12.555 -5.301t5.301 -12.555zm410.688 482.112h160.704v-178.56h-160.704v178.56zm-214.272 -214.272h178.56v-160.704h-178.56v160.704zm214.272 0h160.704v-160.704h-160.704v160.704zm17.856 -267.84v-160.704q0 -7.254 -5.301 -12.555t-12.555 -5.301h-35.712q-7.254 0 -12.555 5.301t-5.301 12.555v160.704q0 7.254 5.301 12.555t12.555 5.301h35.712q7.254 0 12.555 -5.301t5.301 -12.555zm214.272 -35.712v714.24q0 29.016 -21.204 50.22t-50.22 21.204h-785.664q-29.016 0 -50.22 -21.204t-21.204 -50.22v-714.24q0 -29.016 21.204 -50.22t50.22 -21.204h71.424v-53.568q0 -36.828 26.226 -63.054t63.054 -26.226h35.712q36.828 0 63.054 26.226t26.226 63.054v53.568h214.272v-53.568q0 -36.828 26.226 -63.054t63.054 -26.226h35.712q36.828 0 63.054 26.226t26.226 63.054v53.568h71.424q29.016 0 50.22 21.204t21.204 50.22z" fill="#000000"/></svg>
