<svg xmlns="http://www.w3.org/2000/svg" width="32" height="32"><path d="M3.294 6.836v21.067h25.413V6.836H26.13v.21c0 .952-.66 1.72-1.482 1.72s-1.485-.768-1.485-1.72v-.21H8.836v.21c0 .952-.662 1.72-1.484 1.72-.823 0-1.483-.768-1.483-1.72v-.21H3.294zM4.9 10.338h21.912V26.22H4.9V10.34z" fill-rule="evenodd"/><path d="M6.357 4.097v3.196c0 .632.437 1.14.982 1.14.544 0 .984-.508.984-1.14V4.097H6.357zM23.695 4.097v3.196c0 .632.438 1.14.982 1.14.545 0 .985-.508.985-1.14V4.097h-1.967z"/><text transform="matrix(.96 0 0 .58 -61.29 14.1)" y="15.356" x="72.085" style="line-height:125%;-inkscape-font-specification:Impact Condensed" font-size="22.488" font-stretch="condensed" letter-spacing="0" word-spacing="0" font-family="Impact"><tspan y="15.356" x="72.085">w</tspan></text></svg>