<svg xmlns="http://www.w3.org/2000/svg" xmlns:v="http://schemas.microsoft.com/visio/2003/SVGExtensions/" width="31.041in" height="21.924in" viewBox="0 0 2234.94 1578.54" color-interpolation-filters="sRGB" class="st13"><v:documentProperties v:langID="1035" v:viewMarkup="false"/><style type="text/css"><![CDATA[
		.st1 {fill:none;stroke:none;stroke-linecap:butt;stroke-width:0.75}
		.st2 {fill:#ffffff;font-family:Calibri;font-size:0.312492em}
		.st3 {fill:#ffffff;stroke:none;stroke-linecap:butt;stroke-width:2.65748}
		.st4 {fill:none;stroke:none;stroke-linecap:butt;stroke-width:2.65748}
		.st5 {fill:none}
		.st6 {stroke:#bf8080;stroke-linecap:round;stroke-linejoin:round;stroke-width:0.345391}
		.st7 {stroke:#71cebe;stroke-linecap:round;stroke-linejoin:round;stroke-width:0.478233}
		.st8 {fill:#dad1ae;stroke:none;stroke-linecap:butt;stroke-width:2.65748}
		.st9 {stroke:#000000;stroke-linecap:round;stroke-linejoin:round;stroke-width:0.929899}
		.st10 {fill:#7f7f7f;font-family:Arial;font-size:0.759109em;font-weight:bold}
		.st11 {fill:#7f7f7f;font-family:Calibri;font-size:0.607292em}
		.st12 {fill:#7f7f7f;font-family:Calibri;font-size:0.404846em}
		.st13 {fill:none;fill-rule:evenodd;font-size:12px;overflow:visible;stroke-linecap:square;stroke-miterlimit:3}
	]]></style><g v:mID="0" v:index="1" v:groupContext="foregroundPage"><title>svg2</title><v:pageProperties v:drawingScale="1" v:pageScale="1" v:drawingUnits="19" v:shadowOffsetX="9" v:shadowOffsetY="-9"/><g id="shape2-1" v:mID="2" v:groupContext="shape" transform="translate(39.375 -42.025)"><title>text24</title><desc>GSEducationalVersion</desc><v:textBlock v:margins="rect(0,0,0,0)"/><v:textRect cx="37.5" cy="1576.29" width="75.01" height="4.5"/><path class="st1" d="M0 1574.04h75v4.5H0z"/><text y="1577.42" class="st2" v:langID="1035"><v:paragraph/><v:tabList/>GSEducationalVersion</text></g><g id="group3-4" transform="translate(39.375 -39.167)" v:mID="3" v:groupContext="group"><title>g30</title><g id="group4-5" transform="translate(.746 -77.689)" v:mID="4" v:groupContext="group"><title>g44</title><g id="group5-6" transform="translate(583.263 -101.322)" v:mID="5" v:groupContext="group"><title>g52</title><g id="shape6-7" v:mID="6" v:groupContext="shape" transform="translate(192.883 -1096.6)"><title>path56</title><path class="st3" d="M0 1498.38h72.068v80.162H0z"/></g><g id="shape7-9" v:mID="7" v:groupContext="shape" transform="translate(192.883 -960.006)"><title>path60</title><path d="M0 1447.27h106.91l.39 41.3 46.08.65v89.32H0v-131.27z" class="st3"/></g><g id="group8-11" v:mID="8" v:groupContext="group"><title>g62</title><g id="shape9-12" v:mID="9" v:groupContext="shape"><title>path64</title><path d="M0 388.51h182.28l.03 240.27 253.99.4.01-1.01-2.11 759.45h101.58v-38.53h619.43v229.45H0V388.51z" class="st3"/></g><g id="shape10-14" v:mID="10" v:groupContext="shape"><title>path86</title><path d="M0 388.51h182.28l.03 240.27 253.99.4.01-1.01-2.11 759.45h101.58v-38.53h619.43v229.45H0V388.51z" class="st4"/></g></g><g id="shape11-16" v:mID="11" v:groupContext="shape"><title>path90</title><path d="M0 1578.54h1155.21H0z" class="st5"/><path d="M0 1578.54h1155.21" class="st6"/></g><g id="shape12-19" v:mID="12" v:groupContext="shape" transform="translate(1155.21)"><title>path94</title><path d="M0 1578.54v-229.45 229.45z" class="st5"/><path d="M0 1578.54v-229.45" class="st6"/></g><g id="shape13-22" v:mID="13" v:groupContext="shape" transform="translate(535.781 -229.453)"><title>path98</title><path d="M619.43 1578.54H0h619.43z" class="st5"/><path d="M619.43 1578.54H0" class="st6"/></g><g id="shape14-25" v:mID="14" v:groupContext="shape" transform="translate(535.781 -190.924)"><title>path102</title><path d="M0 1540.02v38.52-38.52z" class="st5"/><path d="M0 1540.02v38.52" class="st6"/></g><g id="shape15-28" v:mID="15" v:groupContext="shape" transform="translate(434.204 -190.924)"><title>path106</title><path d="M101.58 1578.54H0h101.58z" class="st5"/><path d="M101.58 1578.54H0" class="st6"/></g><g id="shape16-31" v:mID="16" v:groupContext="shape" transform="translate(434.204 -190.924)"><title>path110</title><path d="M0 1578.54l2.1-759.45L0 1578.54z" class="st5"/><path d="M0 1578.54l2.1-759.45" class="st6"/></g><g id="shape17-34" v:mID="17" v:groupContext="shape" transform="translate(436.295 -949.368)"><title>path114</title><path d="M.01 1577.54l-.01 1 .01-1z" class="st5"/><path d="M.01 1577.54l-.01 1" class="st6"/></g><g id="shape18-37" v:mID="18" v:groupContext="shape" transform="translate(182.309 -949.368)"><title>path118</title><path d="M253.99 1578.54L0 1578.15l253.99.39z" class="st5"/><path d="M253.99 1578.54L0 1578.15" class="st6"/></g><g id="shape19-40" v:mID="19" v:groupContext="shape" transform="translate(182.277 -949.764)"><title>path122</title><path d="M.03 1578.54L0 1338.27l.03 240.27z" class="st5"/><path d="M.03 1578.54L0 1338.27" class="st6"/></g><g id="shape20-43" v:mID="20" v:groupContext="shape" transform="translate(0 -1190.04)"><title>path126</title><path d="M182.28 1578.54H0h182.28z" class="st5"/><path d="M182.28 1578.54H0" class="st6"/></g><g id="shape21-46" v:mID="21" v:groupContext="shape"><title>path130</title><path d="M0 388.51v1190.03V388.51z" class="st5"/><path d="M0 388.51v1190.03" class="st6"/></g><g id="group22-49" transform="translate(436.877 -993.065)" v:mID="22" v:groupContext="group"><title>g132</title><g id="shape23-50" v:mID="23" v:groupContext="shape"><title>path134</title><path d="M0 1578.54l2.37-177.56H294.9v177.56H0z" class="st4"/></g><g id="shape24-52" v:mID="24" v:groupContext="shape"><title>path156</title><path d="M0 1578.54l2.37-177.56H294.9v177.56H0z" class="st4"/></g></g><g id="shape25-54" v:mID="25" v:groupContext="shape" transform="translate(731.781 -993.065)"><title>path160</title><path d="M0 1578.54v-177.56 177.56z" class="st5"/><path d="M0 1578.54v-177.56" class="st6"/></g><g id="shape26-57" v:mID="26" v:groupContext="shape" transform="translate(439.25 -1170.63)"><title>path164</title><path d="M292.53 1578.54H0h292.53z" class="st5"/><path d="M292.53 1578.54H0" class="st6"/></g><g id="shape27-60" v:mID="27" v:groupContext="shape" transform="translate(436.877 -993.065)"><title>path168</title><path d="M2.37 1400.98L0 1578.54l2.37-177.56z" class="st5"/><path d="M2.37 1400.98L0 1578.54" class="st6"/></g><g id="shape28-63" v:mID="28" v:groupContext="shape" transform="translate(436.877 -993.065)"><title>path172</title><path d="M0 1578.54h294.9H0z" class="st5"/><path d="M0 1578.54h294.9" class="st6"/></g><g id="shape29-66" v:mID="29" v:groupContext="shape" transform="translate(193.521 -959.089)"><title>path176</title><path d="M0 1361.33v217.21-217.21z" class="st5"/><path d="M0 1361.33v217.21" class="st7"/></g><g id="shape30-69" v:mID="30" v:groupContext="shape" transform="translate(193.521 -959.089)"><title>path180</title><path d="M0 1578.54h230.93H0z" class="st5"/><path d="M0 1578.54h230.93" class="st7"/></g><g id="shape31-72" v:mID="31" v:groupContext="shape" transform="translate(424.453 -959.089)"><title>path184</title><path d="M0 1578.54v-217.21 217.21z" class="st5"/><path d="M0 1578.54v-217.21" class="st7"/></g><g id="shape32-75" v:mID="32" v:groupContext="shape" transform="translate(193.521 -1176.3)"><title>path188</title><path d="M230.93 1578.54H0h230.93z" class="st5"/><path d="M230.93 1578.54H0" class="st7"/></g><g id="shape33-78" v:mID="33" v:groupContext="shape" transform="translate(182.224 -1176.76)"><title>path192</title><path class="st8" d="M0 1567.92h255.193v10.627H0z"/></g><g id="shape34-80" v:mID="34" v:groupContext="shape" transform="translate(182.224 -1176.76)"><title>path196</title><path d="M0 1578.54h.03H0z" class="st5"/><path d="M0 1578.54h.03" class="st9"/></g><g id="shape35-83" v:mID="35" v:groupContext="shape" transform="translate(192.883 -1176.76)"><title>path200</title><path d="M0 1578.54h72.07H0z" class="st5"/><path d="M0 1578.54h72.07" class="st9"/></g><g id="shape36-86" v:mID="36" v:groupContext="shape" transform="translate(270.264 -1176.76)"><title>path204</title><path d="M0 1578.54h29.53H0z" class="st5"/><path d="M0 1578.54h29.53" class="st9"/></g><g id="shape37-89" v:mID="37" v:groupContext="shape" transform="translate(305.108 -1176.76)"><title>path208</title><path d="M0 1578.54h121.99H0z" class="st5"/><path d="M0 1578.54h121.99" class="st9"/></g><g id="shape38-92" v:mID="38" v:groupContext="shape" transform="translate(437.417 -1176.76)"><title>path212</title><path d="M0 1578.54v-10.62 10.62z" class="st5"/><path d="M0 1578.54v-10.62" class="st9"/></g><g id="shape39-95" v:mID="39" v:groupContext="shape" transform="translate(182.224 -1187.39)"><title>path216</title><path d="M255.19 1578.54H0h255.19z" class="st5"/><path d="M255.19 1578.54H0" class="st9"/></g><g id="shape40-98" v:mID="40" v:groupContext="shape" transform="translate(182.224 -1176.76)"><title>path220</title><path d="M0 1567.92v10.62-10.62z" class="st5"/><path d="M0 1567.92v10.62" class="st9"/></g><g id="shape41-101" v:mID="41" v:groupContext="shape" transform="translate(427.103 -949.378)"><title>path224</title><path class="st8" d="M0 1351.16h10.627v227.38H0z"/></g><g id="shape42-103" v:mID="42" v:groupContext="shape" transform="translate(427.103 -960.006)"><title>path228</title><path d="M0 1361.79v216.75-216.75z" class="st5"/><path d="M0 1361.79v216.75" class="st9"/></g><g id="shape43-106" v:mID="43" v:groupContext="shape" transform="translate(427.103 -949.378)"><title>path232</title><path d="M0 1578.54h10.63H0z" class="st5"/><path d="M0 1578.54h10.63" class="st9"/></g><g id="shape44-109" v:mID="44" v:groupContext="shape" transform="translate(437.73 -949.378)"><title>path236</title><path d="M0 1578.54v-227.38 227.38z" class="st5"/><path d="M0 1578.54v-227.38" class="st9"/></g><g id="shape45-112" v:mID="45" v:groupContext="shape" transform="translate(437.417 -1176.76)"><title>path240</title><path d="M.31 1578.54H0h.31z" class="st5"/><path d="M.31 1578.54H0" class="st9"/></g><g id="shape46-115" v:mID="46" v:groupContext="shape" transform="translate(182.256 -949.378)"><title>path244</title><path d="M244.85 1567.92v10.62H0l10.63-10.62h234.22z" class="st8"/></g><g id="shape47-117" v:mID="47" v:groupContext="shape" transform="translate(192.883 -960.006)"><title>path248</title><path d="M234.22 1578.54H0h234.22z" class="st5"/><path d="M234.22 1578.54H0" class="st9"/></g><g id="shape48-120" v:mID="48" v:groupContext="shape" transform="translate(182.256 -949.378)"><title>path252</title><path d="M0 1578.54h244.85H0z" class="st5"/><path d="M0 1578.54h244.85" class="st9"/></g><g id="shape49-123" v:mID="49" v:groupContext="shape" transform="translate(182.256 -949.378)"><title>path256</title><path d="M0 1351.16h10.63v216.76L0 1578.54v-227.38z" class="st8"/></g><g id="shape50-125" v:mID="50" v:groupContext="shape" transform="translate(182.256 -949.378)"><title>path260</title><path d="M0 1351.16v227.38-227.38z" class="st5"/><path d="M0 1351.16v227.38" class="st9"/></g><g id="shape51-128" v:mID="51" v:groupContext="shape" transform="translate(192.883 -960.006)"><title>path264</title><path d="M0 1578.54v-131.27 131.27z" class="st5"/><path d="M0 1578.54v-131.27" class="st9"/></g><g id="shape52-131" v:mID="52" v:groupContext="shape" transform="translate(192.883 -1096.6)"><title>path268</title><path d="M0 1578.54v-80.16 80.16z" class="st5"/><path d="M0 1578.54v-80.16" class="st9"/></g><g id="shape53-134" v:mID="53" v:groupContext="shape" transform="translate(299.793 -1049.98)"><title>path272</title><path class="st8" d="M0 1451.77h5.315v126.778H0z"/></g><g id="shape54-136" v:mID="54" v:groupContext="shape" transform="translate(299.793 -1096.6)"><title>path276</title><path d="M0 1498.38v80.16-80.16z" class="st5"/><path d="M0 1498.38v80.16" class="st9"/></g><g id="shape55-139" v:mID="55" v:groupContext="shape" transform="translate(299.793 -1049.98)"><title>path280</title><path d="M0 1537.24v41.3-41.3z" class="st5"/><path d="M0 1537.24v41.3" class="st9"/></g><g id="shape56-142" v:mID="56" v:groupContext="shape" transform="translate(299.793 -1049.98)"><title>path284</title><path d="M0 1578.54h5.31H0z" class="st5"/><path d="M0 1578.54h5.31" class="st9"/></g><g id="shape57-145" v:mID="57" v:groupContext="shape" transform="translate(305.108 -1049.98)"><title>path288</title><path d="M0 1578.54v-84.55 84.55z" class="st5"/><path d="M0 1578.54v-84.55" class="st9"/></g><g id="shape58-148" v:mID="58" v:groupContext="shape" transform="translate(305.108 -1139.84)"><title>path292</title><path d="M0 1578.54v-36.91 36.91z" class="st5"/><path d="M0 1578.54v-36.91" class="st9"/></g><g id="shape59-151" v:mID="59" v:groupContext="shape" transform="translate(305.108 -1049.98)"><title>path296</title><path d="M0 1578.54v-5.31h72.38l5.31 5.31H0z" class="st8"/></g><g id="shape60-153" v:mID="60" v:groupContext="shape" transform="translate(305.108 -1049.98)"><title>path300</title><path d="M0 1578.54h77.69H0z" class="st5"/><path d="M0 1578.54h77.69" class="st9"/></g><g id="shape61-156" v:mID="61" v:groupContext="shape" transform="translate(305.108 -1055.3)"><title>path304</title><path d="M72.38 1578.54H0h72.38z" class="st5"/><path d="M72.38 1578.54H0" class="st9"/></g><g id="shape62-159" v:mID="62" v:groupContext="shape" transform="translate(305.108 -1049.98)"><title>path308</title><path d="M0 1573.23v5.31-5.31z" class="st5"/><path d="M0 1573.23v5.31" class="st9"/></g><g id="shape63-162" v:mID="63" v:groupContext="shape" transform="translate(377.485 -1049.98)"><title>path312</title><path d="M5.31 1578.54L0 1573.23v-84.55h5.31v89.86z" class="st8"/></g><g id="shape64-164" v:mID="64" v:groupContext="shape" transform="translate(382.797 -1049.98)"><title>path316</title><path d="M0 1578.54v-89.86 89.86z" class="st5"/><path d="M0 1578.54v-89.86" class="st9"/></g><g id="shape65-167" v:mID="65" v:groupContext="shape" transform="translate(377.485 -1139.84)"><title>path320</title><path d="M5.31 1578.54H0h5.31z" class="st5"/><path d="M5.31 1578.54H0" class="st9"/></g><g id="shape66-170" v:mID="66" v:groupContext="shape" transform="translate(377.485 -1055.3)"><title>path324</title><path d="M0 1494v84.54V1494z" class="st5"/><path d="M0 1494v84.54" class="st9"/></g><g id="shape67-173" v:mID="67" v:groupContext="shape" transform="translate(305.108 -1134.53)"><title>path328</title><path class="st8" d="M0 1573.23h72.377v5.314H0z"/></g><g id="shape68-175" v:mID="68" v:groupContext="shape" transform="translate(305.108 -1139.84)"><title>path332</title><path d="M72.38 1578.54H0h72.38z" class="st5"/><path d="M72.38 1578.54H0" class="st9"/></g><g id="shape69-178" v:mID="69" v:groupContext="shape" transform="translate(305.108 -1134.53)"><title>path336</title><path d="M0 1578.54h72.38H0z" class="st5"/><path d="M0 1578.54h72.38" class="st9"/></g><g id="shape70-181" v:mID="70" v:groupContext="shape" transform="translate(377.485 -1134.53)"><title>path340</title><path d="M0 1578.54v-5.31 5.31z" class="st5"/><path d="M0 1578.54v-5.31" class="st9"/></g><g id="shape71-184" v:mID="71" v:groupContext="shape" transform="translate(346.262 -960.008)"><title>path344</title><path class="st8" d="M0 1488.57h5.312v89.974H0z"/></g><g id="shape72-186" v:mID="72" v:groupContext="shape" transform="translate(346.262 -960.008)"><title>path348</title><path d="M0 1488.57v89.97-89.97z" class="st5"/><path d="M0 1488.57v89.97" class="st9"/></g><g id="shape73-189" v:mID="73" v:groupContext="shape" transform="translate(346.262 -960.008)"><title>path352</title><path d="M0 1578.54h5.31H0z" class="st5"/><path d="M0 1578.54h5.31" class="st9"/></g><g id="shape74-192" v:mID="74" v:groupContext="shape" transform="translate(351.575 -960.008)"><title>path356</title><path d="M0 1578.54v-89.97 89.97z" class="st5"/><path d="M0 1578.54v-89.97" class="st9"/></g><g id="shape75-195" v:mID="75" v:groupContext="shape" transform="translate(346.262 -1049.98)"><title>path360</title><path d="M5.31 1578.54H0h5.31z" class="st5"/><path d="M5.31 1578.54H0" class="st9"/></g><g id="shape76-198" v:mID="76" v:groupContext="shape" transform="translate(264.951 -1092.98)"><title>path364</title><path class="st8" d="M0 1494.77h5.312v83.775H0z"/></g><g id="shape77-200" v:mID="77" v:groupContext="shape" transform="translate(264.951 -1092.98)"><title>path368</title><path d="M0 1494.77v83.77-83.77z" class="st5"/><path d="M0 1494.77v83.77" class="st9"/></g><g id="shape78-203" v:mID="78" v:groupContext="shape" transform="translate(264.951 -1092.98)"><title>path372</title><path d="M0 1578.54h5.31H0z" class="st5"/><path d="M0 1578.54h5.31" class="st9"/></g><g id="shape79-206" v:mID="79" v:groupContext="shape" transform="translate(270.264 -1092.98)"><title>path376</title><path d="M0 1578.54v-83.77 83.77z" class="st5"/><path d="M0 1578.54v-83.77" class="st9"/></g><g id="shape80-209" v:mID="80" v:groupContext="shape" transform="translate(192.883 -1091.28)"><title>path380</title><path class="st8" d="M0 1573.23h106.91v5.313H0z"/></g><g id="shape81-211" v:mID="81" v:groupContext="shape" transform="translate(270.264 -1096.6)"><title>path384</title><path d="M29.53 1578.54H0h29.53z" class="st5"/><path d="M29.53 1578.54H0" class="st9"/></g><g id="shape82-214" v:mID="82" v:groupContext="shape" transform="translate(192.883 -1096.6)"><title>path388</title><path d="M72.07 1578.54H0h72.07z" class="st5"/><path d="M72.07 1578.54H0" class="st9"/></g><g id="shape83-217" v:mID="83" v:groupContext="shape" transform="translate(192.883 -1091.28)"><title>path392</title><path d="M0 1578.54h106.91H0z" class="st5"/><path d="M0 1578.54h106.91" class="st9"/></g><g id="group84-220" transform="translate(209.963 -1138.57)" v:mID="84" v:groupContext="group"><title>g406</title><g id="shape85-221" v:mID="85" v:groupContext="shape"><title>text408</title><desc>501</desc><v:textBlock v:margins="rect(0,0,0,0)"/><v:textRect cx="13.664" cy="1573.08" width="27.33" height="10.931"/><path class="st1" d="M0 1567.61h27.328v10.93H0z"/><text y="1575.81" class="st10" v:langID="1035"><v:paragraph/><v:tabList/>501</text></g><g id="shape86-224" v:mID="86" v:groupContext="shape" transform="translate(15.121)"><title>text412</title><desc>b</desc><v:textBlock v:margins="rect(0,0,0,0)"/><v:textRect cx="4.555" cy="1573.08" width="9.11" height="10.931"/><path class="st1" d="M0 1567.61h9.11v10.93H0z"/><text y="1575.81" class="st10" v:langID="1035"><v:paragraph/><v:tabList/>b</text></g></g><g id="shape87-227" v:mID="87" v:groupContext="shape" transform="translate(209.963 -1128.22)"><title>text430</title><desc>107</desc><v:textBlock v:margins="rect(0,0,0,0)"/><v:textRect cx="10.931" cy="1574.17" width="21.87" height="8.745"/><path class="st1" d="M0 1569.8h21.862v8.745H0z"/><text y="1576.36" class="st11" v:langID="1035"><v:paragraph/><v:tabList/>107</text></g><g id="group88-230" transform="translate(209.963 -1117.79)" v:mID="88" v:groupContext="group"><title>g446</title><g id="shape89-231" v:mID="89" v:groupContext="shape"><title>text448</title><desc>A</desc><v:textBlock v:margins="rect(0,0,0,0)"/><v:textRect cx="3.644" cy="1574.17" width="7.29" height="8.745"/><path class="st1" d="M0 1569.8h7.287v8.745H0z"/><text y="1576.36" class="st11" v:langID="1035"><v:paragraph/><v:tabList/>A</text></g><g id="shape90-234" v:mID="90" v:groupContext="shape" transform="translate(4.858)"><title>text452</title><desc>:</desc><v:textBlock v:margins="rect(0,0,0,0)"/><v:textRect cx="3.644" cy="1574.17" width="7.29" height="8.745"/><path class="st1" d="M0 1569.8h7.287v8.745H0z"/><text y="1576.36" class="st11" v:langID="1035"><v:paragraph/><v:tabList/>:</text></g></g><g id="group91-237" transform="translate(218.902 -1117.79)" v:mID="91" v:groupContext="group"><title>g468</title><g id="shape92-238" v:mID="92" v:groupContext="shape"><title>text470</title><desc>8</desc><v:textBlock v:margins="rect(0,0,0,0)"/><v:textRect cx="3.644" cy="1574.17" width="7.29" height="8.745"/><path class="st1" d="M0 1569.8h7.287v8.745H0z"/><text y="1576.36" class="st11" v:langID="1035"><v:paragraph/><v:tabList/>8</text></g><g id="shape93-241" v:mID="93" v:groupContext="shape" transform="translate(4.032)"><title>text474</title><desc>.</desc><v:textBlock v:margins="rect(0,0,0,0)"/><v:textRect cx="3.644" cy="1574.17" width="7.29" height="8.745"/><path class="st1" d="M0 1569.8h7.287v8.745H0z"/><text y="1576.36" class="st11" v:langID="1035"><v:paragraph/><v:tabList/>.</text></g><g id="shape94-244" v:mID="94" v:groupContext="shape" transform="translate(6.073)"><title>text478</title><desc>184</desc><v:textBlock v:margins="rect(0,0,0,0)"/><v:textRect cx="10.931" cy="1574.17" width="21.87" height="8.745"/><path class="st1" d="M0 1569.8h21.862v8.745H0z"/><text y="1576.36" class="st11" v:langID="1035"><v:paragraph/><v:tabList/>184</text></g></g><g id="shape95-247" v:mID="95" v:groupContext="shape" transform="translate(239.112 -1117.79)"><title>text496</title><desc>m</desc><v:textBlock v:margins="rect(0,0,0,0)"/><v:textRect cx="3.644" cy="1574.17" width="7.29" height="8.745"/><path class="st1" d="M0 1569.8h7.287v8.745H0z"/><text y="1576.36" class="st11" v:langID="1035"><v:paragraph/><v:tabList/>m</text></g><g id="shape96-250" v:mID="96" v:groupContext="shape" transform="translate(245.185 -1120.69)"><title>text514</title><desc>2</desc><v:textBlock v:margins="rect(0,0,0,0)"/><v:textRect cx="2.429" cy="1575.63" width="4.86" height="5.83"/><path class="st1" d="M0 1572.71h4.858v5.83H0z"/><text y="1577.09" class="st12" v:langID="1035"><v:paragraph/><v:tabList/>2</text></g><g id="group97-253" transform="translate(248.602 -1027.54)" v:mID="97" v:groupContext="group"><title>g530</title><g id="shape98-254" v:mID="98" v:groupContext="shape"><title>text532</title><desc>501</desc><v:textBlock v:margins="rect(0,0,0,0)"/><v:textRect cx="13.664" cy="1573.08" width="27.33" height="10.931"/><path class="st1" d="M0 1567.61h27.328v10.93H0z"/><text y="1575.81" class="st10" v:langID="1035"><v:paragraph/><v:tabList/>501</text></g><g id="shape99-257" v:mID="99" v:groupContext="shape" transform="translate(15.122)"><title>text536</title><desc>a</desc><v:textBlock v:margins="rect(0,0,0,0)"/><v:textRect cx="4.555" cy="1573.08" width="9.11" height="10.931"/><path class="st1" d="M0 1567.61h9.11v10.93H0z"/><text y="1575.81" class="st10" v:langID="1035"><v:paragraph/><v:tabList/>a</text></g></g><g id="shape100-260" v:mID="100" v:groupContext="shape" transform="translate(248.602 -1017.19)"><title>text554</title><desc>108</desc><v:textBlock v:margins="rect(0,0,0,0)"/><v:textRect cx="10.931" cy="1574.17" width="21.87" height="8.745"/><path class="st1" d="M0 1569.8h21.862v8.745H0z"/><text y="1576.36" class="st11" v:langID="1035"><v:paragraph/><v:tabList/>108</text></g><g id="group101-263" transform="translate(248.602 -1006.75)" v:mID="101" v:groupContext="group"><title>g570</title><g id="shape102-264" v:mID="102" v:groupContext="shape"><title>text572</title><desc>A</desc><v:textBlock v:margins="rect(0,0,0,0)"/><v:textRect cx="3.644" cy="1574.17" width="7.29" height="8.745"/><path class="st1" d="M0 1569.8h7.287v8.745H0z"/><text y="1576.36" class="st11" v:langID="1035"><v:paragraph/><v:tabList/>A</text></g><g id="shape103-267" v:mID="103" v:groupContext="shape" transform="translate(4.858)"><title>text576</title><desc>:</desc><v:textBlock v:margins="rect(0,0,0,0)"/><v:textRect cx="3.644" cy="1574.17" width="7.29" height="8.745"/><path class="st1" d="M0 1569.8h7.287v8.745H0z"/><text y="1576.36" class="st11" v:langID="1035"><v:paragraph/><v:tabList/>:</text></g></g><g id="group104-270" transform="translate(257.541 -1006.75)" v:mID="104" v:groupContext="group"><title>g592</title><g id="shape105-271" v:mID="105" v:groupContext="shape"><title>text594</title><desc>25</desc><v:textBlock v:margins="rect(0,0,0,0)"/><v:textRect cx="7.287" cy="1574.17" width="14.58" height="8.745"/><path class="st1" d="M0 1569.8h14.575v8.745H0z"/><text y="1576.36" class="st11" v:langID="1035"><v:paragraph/><v:tabList/>25</text></g><g id="shape106-274" v:mID="106" v:groupContext="shape" transform="translate(8.065)"><title>text598</title><desc>.</desc><v:textBlock v:margins="rect(0,0,0,0)"/><v:textRect cx="3.644" cy="1574.17" width="7.29" height="8.745"/><path class="st1" d="M0 1569.8h7.287v8.745H0z"/><text y="1576.36" class="st11" v:langID="1035"><v:paragraph/><v:tabList/>.</text></g><g id="shape107-277" v:mID="107" v:groupContext="shape" transform="translate(10.105)"><title>text602</title><desc>795</desc><v:textBlock v:margins="rect(0,0,0,0)"/><v:textRect cx="10.931" cy="1574.17" width="21.87" height="8.745"/><path class="st1" d="M0 1569.8h21.862v8.745H0z"/><text y="1576.36" class="st11" v:langID="1035"><v:paragraph/><v:tabList/>795</text></g></g><g id="shape108-280" v:mID="108" v:groupContext="shape" transform="translate(281.784 -1006.75)"><title>text620</title><desc>m</desc><v:textBlock v:margins="rect(0,0,0,0)"/><v:textRect cx="3.644" cy="1574.17" width="7.29" height="8.745"/><path class="st1" d="M0 1569.8h7.287v8.745H0z"/><text y="1576.36" class="st11" v:langID="1035"><v:paragraph/><v:tabList/>m</text></g><g id="shape109-283" v:mID="109" v:groupContext="shape" transform="translate(287.857 -1009.66)"><title>text638</title><desc>2</desc><v:textBlock v:margins="rect(0,0,0,0)"/><v:textRect cx="2.429" cy="1575.63" width="4.86" height="5.83"/><path class="st1" d="M0 1572.71h4.858v5.83H0z"/><text y="1577.09" class="st12" v:langID="1035"><v:paragraph/><v:tabList/>2</text></g></g></g></g></g></svg>