<svg xmlns:v="http://schemas.microsoft.com/visio/2003/SVGExtensions/" xmlns="http://www.w3.org/2000/svg" viewBox="0 0 2234.94 1578.54" color-interpolation-filters="sRGB" class="st13" pointer-events="all" width="100%" height="100%"><v:documentProperties langID="1035" viewMarkup="false"></v:documentProperties><style type="text/css" id="style4"><![CDATA[
		.st1 {fill:none;stroke:none;stroke-linecap:butt;stroke-width:0.75}
		.st2 {fill:#ffffff;font-family:Calibri;font-size:0.312492em}
		.st3 {fill:#ffffff;stroke:none;stroke-linecap:butt;stroke-width:2.65748}
		.st4 {fill:none;stroke:none;stroke-linecap:butt;stroke-width:2.65748}
		.st5 {fill:none}
		.st6 {stroke:#bf8080;stroke-linecap:round;stroke-linejoin:round;stroke-width:0.345391}
		.st7 {stroke:#71cebe;stroke-linecap:round;stroke-linejoin:round;stroke-width:0.478233}
		.st8 {fill:#dad1ae;stroke:none;stroke-linecap:butt;stroke-width:2.65748}
		.st9 {stroke:#000000;stroke-linecap:round;stroke-linejoin:round;stroke-width:0.929899}
		.st10 {fill:#7f7f7f;font-family:Arial;font-size:0.759109em;font-weight:bold}
		.st11 {fill:#7f7f7f;font-family:Calibri;font-size:0.607292em}
		.st12 {fill:#7f7f7f;font-family:Calibri;font-size:0.404846em}
		.st13 {fill:none;fill-rule:evenodd;font-size:12px;overflow:visible;stroke-linecap:square;stroke-miterlimit:3}
	]]></style><g id="main-group" transform="translate(-49.9039306640625,115.56695556640625)scale(1)"><path id="path31" d="M816.267 183.602h72.068v80.162h-72.068z" class="st3" fill="#fff" stroke-width="2.657" data-room-id="Room-501b"></path><path id="path36" class="st3" d="M816.267 269.086h106.91l.39 41.3 46.08.65v89.32h-153.38v-131.27z" fill="#fff" stroke-width="2.657" data-room-id="Room-501a"></path><path d="M623.384 170.332h182.28l.03 240.27 253.99.4.01-1.01-2.11 759.45h101.58v-38.53h619.43v229.45H623.384V170.332z" class="st3" id="path44" fill="#fff" stroke-width="2.657"></path><path class="st6" d="M623.384 1360.362h1155.21m0 0v-229.45m0-.002h-619.43m0 .008v38.52m.004 0h-101.58m0 0l2.1-759.45m.002.006l-.01 1m.003 0l-253.99-.39m-.003-.006l-.03-240.27m.004-.006h-182.28m0 .01v1190.03m731.78-993.065v-177.56m0-.005h-292.53m-.004.005l-2.37 177.56m0 0h294.9" stroke="#bf8080" stroke-width=".345" stroke-linecap="round" stroke-linejoin="round" pointer-events="none"></path><path class="st7" d="M816.905 184.063v217.21m0 0h230.93m.002 0v-217.21m-.002 0h-230.93" stroke="#71cebe" stroke-width=".478" stroke-linecap="round" stroke-linejoin="round" pointer-events="none"></path><path d="M805.608 172.982H1060.8v10.627H805.61z" class="st8" fill="#dad1ae" stroke-width="2.657" pointer-events="none"></path><path class="st9" d="M805.608 183.602h.03m10.63 0h72.07m5.31 0h29.53m5.314 0h121.99m10.318 0v-10.62m-.002-.01h-255.19m0 .01v10.62" stroke="#000" stroke-width=".93" stroke-linecap="round" stroke-linejoin="round" pointer-events="none"></path><path d="M1050.487 183.604h10.627v227.38h-10.627z" class="st8" fill="#dad1ae" stroke-width="2.657" pointer-events="none"></path><path class="st9" d="M1050.487 183.606v216.75m0 10.628h10.63m-.003 0v-227.38m-.004-.002h-.31" stroke="#000" stroke-width=".93" stroke-linecap="round" stroke-linejoin="round" pointer-events="none"></path><path class="st8" d="M1050.49 400.364v10.62H805.64l10.63-10.62h234.22z" fill="#dad1ae" stroke-width="2.657" pointer-events="none"></path><path class="st9" d="M1050.487 400.356h-234.22m-10.627 10.628h244.85" stroke="#000" stroke-width=".93" stroke-linecap="round" stroke-linejoin="round" pointer-events="none"></path><path class="st8" d="M805.64 183.604h10.63v216.76l-10.63 10.62v-227.38z" fill="#dad1ae" stroke-width="2.657" pointer-events="none"></path><path class="st9" d="M805.64 183.604v227.38m10.627-10.628v-131.27m0-5.324v-80.16" stroke="#000" stroke-width=".93" stroke-linecap="round" stroke-linejoin="round" pointer-events="none"></path><path d="M923.177 183.612h5.315V310.39h-5.315z" class="st8" fill="#dad1ae" stroke-width="2.657" pointer-events="none"></path><path class="st9" d="M923.177 183.602v80.16m0 5.32v41.3m0 0h5.31m.005 0v-84.55m0-5.31v-36.91" stroke="#000" stroke-width=".93" stroke-linecap="round" stroke-linejoin="round" pointer-events="none"></path><path class="st8" d="M928.492 310.382v-5.31h72.38l5.31 5.31h-77.69z" fill="#dad1ae" stroke-width="2.657" pointer-events="none"></path><path class="st9" d="M928.492 310.382h77.69m-5.31-5.32h-72.38m0 .01v5.31" stroke="#000" stroke-width=".93" stroke-linecap="round" stroke-linejoin="round" pointer-events="none"></path><path class="st8" d="M1006.18 310.382l-5.31-5.31v-84.55h5.31v89.86z" fill="#dad1ae" stroke-width="2.657" pointer-events="none"></path><path class="st9" d="M1006.18 310.382v-89.86m0 0h-5.31m0 0v84.54" stroke="#000" stroke-width=".93" stroke-linecap="round" stroke-linejoin="round" pointer-events="none"></path><path d="M928.492 220.522h72.377v5.314h-72.38z" class="st8" fill="#dad1ae" stroke-width="2.657" pointer-events="none"></path><path class="st9" d="M1000.872 220.522h-72.38m0 5.31h72.38m-.002 0v-5.31" stroke="#000" stroke-width=".93" stroke-linecap="round" stroke-linejoin="round" pointer-events="none"></path><path d="M969.646 310.384h5.312v89.974h-5.312z" class="st8" fill="#dad1ae" stroke-width="2.657" pointer-events="none"></path><path class="st9" d="M969.646 310.384v89.97m0 0h5.31m.004 0v-89.97m-.004-.002h-5.31" stroke="#000" stroke-width=".93" stroke-linecap="round" stroke-linejoin="round" pointer-events="none"></path><path d="M888.335 183.612h5.312v83.775h-5.312z" class="st8" fill="#dad1ae" stroke-width="2.657" pointer-events="none"></path><path class="st9" d="M888.335 183.612v83.77m0 0h5.31m.003 0v-83.77" stroke="#000" stroke-width=".93" stroke-linecap="round" stroke-linejoin="round" pointer-events="none"></path><path d="M816.267 263.772h106.91v5.313h-106.91z" class="st8" fill="#dad1ae" stroke-width="2.657" pointer-events="none"></path><path class="st9" d="M923.178 263.762h-29.53m-5.31 0h-72.07m0 5.32h106.91" stroke="#000" stroke-width=".93" stroke-linecap="round" stroke-linejoin="round" pointer-events="none"></path><text y="219.062" class="st10" id="text542" x="833.347" font-weight="bold" font-size="9.109" font-family="Arial" fill="#7f7f7f" pointer-events="none">501b</text><text id="text560" class="st11" y="229.962" x="833.347" font-size="7.288" font-family="Calibri" fill="#7f7f7f" pointer-events="none">107</text><text y="240.392" class="st11" id="text572" x="833.347" font-size="7.288" font-family="Calibri" fill="#7f7f7f" pointer-events="none">A</text><text y="240.392" class="st11" id="text581" x="838.205" font-size="7.288" font-family="Calibri" fill="#7f7f7f" pointer-events="none">:</text><text y="240.392" class="st11" id="text593" x="842.286" font-size="7.288" font-family="Calibri" fill="#7f7f7f" pointer-events="none">8</text><text y="240.392" class="st11" id="text602" x="846.318" font-size="7.288" font-family="Calibri" fill="#7f7f7f" pointer-events="none">.</text><text y="240.392" class="st11" id="text611" x="848.359" font-size="7.288" font-family="Calibri" fill="#7f7f7f" pointer-events="none">184</text><text id="text620" class="st11" y="240.392" x="862.496" font-size="7.288" font-family="Calibri" fill="#7f7f7f" pointer-events="none">m</text><text id="text629" class="st12" y="238.222" x="868.569" font-size="4.858" font-family="Calibri" fill="#7f7f7f" pointer-events="none">2</text><text y="330.092" class="st10" id="text641" x="871.986" font-weight="bold" font-size="9.109" font-family="Arial" fill="#7f7f7f" pointer-events="none">501a</text><text id="text659" class="st11" y="340.992" x="871.986" font-size="7.288" font-family="Calibri" fill="#7f7f7f" pointer-events="none">108</text><text y="351.432" class="st11" id="text671" x="871.986" font-size="7.288" font-family="Calibri" fill="#7f7f7f" pointer-events="none">A</text><text y="351.432" class="st11" id="text680" x="876.844" font-size="7.288" font-family="Calibri" fill="#7f7f7f" pointer-events="none">:</text><text y="351.432" class="st11" id="text692" x="880.925" font-size="7.288" font-family="Calibri" fill="#7f7f7f" pointer-events="none">25</text><text y="351.432" class="st11" id="text701" x="888.99" font-size="7.288" font-family="Calibri" fill="#7f7f7f" pointer-events="none">.</text><text y="351.432" class="st11" id="text710" x="891.03" font-size="7.288" font-family="Calibri" fill="#7f7f7f" pointer-events="none">795</text><text id="text719" class="st11" y="351.432" x="905.168" font-size="7.288" font-family="Calibri" fill="#7f7f7f" pointer-events="none">m</text><text id="text728" class="st12" y="349.252" x="911.241" font-size="4.858" font-family="Calibri" fill="#7f7f7f" pointer-events="none">2</text></g></svg>