<svg xmlns:v="http://schemas.microsoft.com/visio/2003/SVGExtensions/" xmlns="http://www.w3.org/2000/svg" viewBox="0 0 2234.94 1578.54" color-interpolation-filters="sRGB" class="st9" pointer-events="all" width="100%" height="100%"><v:documentProperties langID="1035" viewMarkup="false"></v:documentProperties><style type="text/css" id="style4"><![CDATA[
		.st1 {fill:none;stroke:none;stroke-linecap:butt;stroke-width:0.75}
		.st2 {fill:#ffffff;font-family:Calibri;font-size:0.312492em}
		.st3 {fill:none}
		.st4 {stroke:#00a6a6;stroke-linecap:round;stroke-linejoin:round;stroke-width:0.956599}
		.st5 {stroke:#966c19;stroke-linecap:round;stroke-linejoin:round;stroke-width:0.956599}
		.st6 {stroke:#000000;stroke-linecap:round;stroke-linejoin:round;stroke-width:0.956599}
		.st7 {fill:#000000;font-family:Arial;font-size:0.791542em;font-weight:bold}
		.st8 {fill:#000000;font-family:Calibri;font-size:0.767189em}
		.st9 {fill:none;fill-rule:evenodd;font-size:12px;overflow:visible;stroke-linecap:square;stroke-miterlimit:3}
	]]></style><g id="main-group" transform="translate(7.8795166015625,-139.2056884765625)scale(1)"><path class="st1" d="M39.375 1532.015h75v4.5h-75z" id="path15" fill="none" stroke-width=".75"></path><path class="st4" d="M279.406 972.553l-.36-421.5m0-.006l192.8-.1m-.006-.007l.14-174.62m-.002-.002l-96.25-.13m-.003-.01l-.05-267.82m0-.01h790.35m.002.01l.23 162.44m-.002 0l96.74-.12m-.002-.005l-.3 193.79m-.003 0l-243.53.32m0 .003l.07 578.61m-.003 0l1017.86-.89m0 .004l-.42 236.7m0 0l-96.65-.37m0-.002l.31 120.35m.003 0H567.36m0 0l.85-377.94m.002-.008l-240.6-.73m.004 0l-.01-47.81m.004 0l-48.2-.14m48.2.14l-48.2-.14m48.206 47.95l-.01-47.81m240.606 48.54l-240.6-.73m239.748 378.678l.85-377.94m1372.12 377.94H567.36m1372.656-120.35l.31 120.35m96.34-119.978l-96.65-.37m97.07-236.33l-.42 236.7m-1017.44-235.814l1017.86-.89M1019.16 464.786l.07 578.61m243.46-578.934l-243.53.32m243.833-194.11l-.3 193.79M1166.255 270.8l96.74-.12m-96.968-162.32l.23 162.44m-790.582-162.45h790.35m-790.3 267.83l-.05-267.82m96.303 267.96l-96.25-.13M471.84 550.94l.14-174.62M279.046 551.047l192.8-.1m-192.44 421.606l-.36-421.5" stroke="#00a6a6" stroke-width=".957" stroke-linecap="round" stroke-linejoin="round" pointer-events="none"></path><path class="st5" d="M961.703 1050.35v111m0 4.3v60.45m8.6 8.598v-192.95m.004-.005h-1.58M617.47 1234.698H970.3m-8.6-8.598H823.46m-4.302 0h-193.09m0 .006v3.16m197.392-178.923h27.78m4.294 0h42.65m4.296 0h59.22m2.723-8.6h-140.59m-4.303 0h-.37m83.32 152.73v-28.82m0-4.303v-111m-4.3-.005v75.04m0 4.3v60.49m63.52-28.825h-59.22m0 4.3h59.22m-106.166-40.265v-75.04m-4.297 0v75.04m46.947 0h-42.65m-4.3 0h-11.86m4.3 4.3h54.51m-54.51 60.49v-60.49m-4.3-4.293v28.34m0 2.152v34.29m-15.914 4.3h79.02m-4.296-4.3h-54.51m-4.304 0h-15.91m-4.3-148.424v184.35m4.3 0v-31.62m0-4.306v-34.29m0-2.152v-103.39m0 105.54h15.91m0-2.15h-15.91M617.47 282.728h8.6m-.002 0v-2.27m-8.598 85.82v5.41m0 0h8.6m0-5.41h-8.6m0 47.426v4.37m0 0h8.6m-.002 0v-4.37m.002-.004h-8.6m0 46.39v6.18m0 0h8.6m0-6.184h-8.6m0 48.196v7.42m0 0h8.6m-.002 0v-7.42m.002 0h-8.6m0 49.436v3.26m0 0h8.6m0-3.264h-8.6m0 45.284v9.49m0 0h8.6m-.002 0v-9.49m.002-.006h-8.6m0 51.516v5.65m0 0h8.6m0-5.658h-8.6m0 47.67v6.45m0 0h8.6m-.002 0v-6.45m.002 0h-8.6m0 48.47v6.79m0 0h8.6m-.002 0v-6.79m.002-.008h-8.6m0 48.81v5.41m0 0h8.6m-.002 0v-5.41m.002 0h-8.6m0 47.428v6.24m0 0h8.6m-.002 0v-6.24m.002-.006h-8.6m0 48.258v7.14m0 0h8.6m-.002 0v-7.14m.002 0h-8.6m0 49.152v6.45m0 0h8.6m-.002 0v-6.45m.002 0h-8.6m0 48.462v4.72m0 0h8.6m-.002 0v-4.72m.002 0h-8.6m0 46.738v16.29m0 0h8.6m-.002 0v-16.29m.002-.006h-8.6m0 58.308v.68m0 0h8.6m-.002 0v-.68m.002 0h-8.6m0 42.702v6.1m0 0h8.6m-.002 0v-6.1m.002-.008h-8.6m0 43.134v3.65m0 0h8.6m-.002 0v-3.65m.002-.007h-8.6m0 45.67v5.43m8.6-5.43h-8.6m0 0v-42.01m0-3.66v-37.01m0-6.117v-42.01m0-.684v-42.01m0-16.298v-42.01m0-4.722v-42.01m0-6.45v-42.01m0-7.144v-42.01m0-6.248v-42.01m0-5.412v-42.01m0-6.8v-42.01m0-6.452v-42.01m0-5.66v-42.01m0-9.498v-42.01m0-3.268v-42.01m0-7.422v-42.01m0-6.186v-42.01m0-4.376v-42.01m0-5.412v-83.55m8.598 0v80.47m0 8.492v42.01m0 4.377v39.66m0 8.535v42.01m0 7.422v42.01m0 5.298v39.98m0 9.5v41.62m0 6.048v42.01m0 6.452v42.01m0 6.8v42.01m0 5.412v42.01m0 6.248v42.01m0 7.143v42.01m0 6.45v42.01m0 4.723v42.01m0 16.298v42.01m0 .682v40.94m0 7.19v37.01m0 3.662v38.84m346.278-954.252h-16.33m0 0v8.6m0 0h7.73m8.6 4.65v-13.25m-58.342 0h-2.49m0 0v8.6m0 0h2.49m0 0v-8.6m-44.504 0h-5.7m0 0v8.6m0 0h5.7m.002 0v-8.6m-47.714 0h-3.69m0 0v8.6m0 0h3.69m-.004 0v-8.6m-45.698 0h-10.68m0 0v8.6m0 0h10.68m0 0v-8.6m-52.696 0H617.47m0 .01v10.87m8.598-2.28h97.33m-.005 0v-8.6m0 0h42.01m10.683 0h42.01m3.688 0h42.01m5.708 0h42.01m2.492 0h42.01m0 8.6h-42.01m-2.492 0h-42.01m-5.708 0h-42.01m-3.688 0h-42.01m-10.683 0h-42.01m248.953 179.867v-31.12m0-6.45v-131.19m-8.6-11.107v58.7m0 4.3v112.57m4.98 4.297h3.62m-148.513 4.3h140.59m-.677-8.597h-60.67m-4.302 0h-74.92m-4.3-77.273v85.87m4.3-8.597v-39.32m0-4.306v-21.77m0-2.154v-5.43m79.24 29.354h-79.24m0 4.3h79.24m-.002 0v-4.3m60.658-73.244h-66.59m0 .01v4.29m0 0h66.59m-96.467 35.29v-33.02m-4.3-4.3v37.32m40.41-37.32h-40.41m4.3 4.3h31.49m4.303 0h.31m.004 0v-4.3m-.314 114.6v-110.3m-4.3 0v110.3m-74.922-72.98h20.14m2.146 0h52.53m-.002 0v-4.3m-.005 0h-31.38m-4.3 0h-43.43m24.44 9.73h-20.14m0 2.15h22.29m-2.153-7.58v5.43m2.15 2.15v-7.58m365.156-97.94h-238.95m0 6.45h232.5m-431.258 759.076v-770.17m-4.3 0v770.17m0 0h4.3m-4.3-687.426h-143.22m0 0v8.49m0-4.19h143.22m0 0v-4.29m0 94.53h-143.22m0 .002v8.53m0-4.233h143.22m0 0v-4.3m0 100.968h-143.22m0-.99v5.29m0 0h143.22m0 0v-4.3m0 95.407h-143.22m0 .006v6.04m0-1.746h143.22m0 0v-4.3m0 98.173h-143.22m0 2.15h143.22m0 0v-2.15m0 96.65h-143.22m0 2.15h143.22m0 0v-2.15m0 96.583h-143.22m0 2.147h143.22m0 0v-2.14m-45.5 102.655v177.86m0 0h2.15m0 0v-180.01m-99.87 2.144h97.72m2.15-2.15h-99.87m0 0v2.15m0 93.374h99.87m0-2.15h-99.87m0 0v2.15m585.23-712.352v-144.09m-6.448 6.45v131.19m-232.504 6.45h238.95m-6.45-6.45h-232.5m-148.513 618.997v-577.12m-4.28-.008h-.02m0 .008v577.12m148.805-194.477h-100.34m-2.155 0h-46.31m0 4.3h148.8m.003 0v-4.3m-.013-96.013h-148.79m0 4.3h148.79m.003 0v-4.3m-3.9-286.633v2.64m0 0h4.3m0 0v-6.94m-4.3 48.96v5.58m0 0h4.3m0 0v-5.58m0-.006h-4.3m0 47.604v6.26m0 0h4.3m0 0v-6.26m0-.006h-4.3m0 48.283v5.44m0 0h4.3m0 0v-5.44m0-.002h-4.3m0 47.46v5.26m0 0h4.3m0 0v-5.26m0-.005h-4.3m0 47.282v6.26m0 0h4.3m0 0v-6.26m0-.006h-4.3m0 48.286v7.31m0 0h4.3m0 0v-7.31m0-.007h-4.3m0 49.337v6.54m0 0h4.3m0 0v-6.54m0-.006h-4.3m0 48.556v5.14m0 0h4.3m0 0v-5.14m0 0h-4.3m0 47.152v6.74m0 0h4.3m0 0v-6.74m0 0h-4.3m0 48.756v5.87m0 0h4.3m0 0v-5.87m0-.003h-4.3m0 47.888v3.56m0 0h4.3m0 0v-3.56m0-.003h-4.3m0 45.583v6.32m4.3 0v-6.32m0-.007h-4.3m0 0v-42.01m0-3.566v-42.01m0-5.875v-42.01m0-6.742v-41.63m0-5.523v-42.01m0-6.546v-41.94m0-7.39v-42.01m0-6.27v-42.01m0-5.266v-42.01m0-5.445v-42.01m0-6.27v-42.01m0-5.59v-42.01m4.3 0v42.01m0 5.59v42.01m0 6.27v42.01m0 5.445v42.01m0 5.266v42.01m0 6.27v42.01m0 7.32v42.01m0 6.546v42.01m0 5.143v42.01m0 6.742v42.01m0 5.875v42.01m0 3.566v42.01m83.607 42.364h-82.02m0-.002v6.45m0 0h88.47m-6.45-37.618v31.17m6.45 6.448v-31.17m494.9-6.448h-501.35m6.45 6.45h488.45m6.443 181.747v-188.19m-6.44 6.443v175.3m-494.74 6.447h501.18m-6.44-6.447h-488.29m-6.45-6.343v12.79m6.45-6.447v-12.79m-88.643 6.446h82.19m6.45-6.45h-88.64m0 0v6.45m-102.305-374.75v-91.71m-2.15 0v91.71" stroke="#966c19" stroke-width=".957" stroke-linecap="round" stroke-linejoin="round" pointer-events="none"></path><path class="st6" d="M1172.1 1144.175v13.65m-40.953 0h40.95m-40.95-13.65v13.65m0-13.652h40.95M677.04 1187.32v13.65m-40.95 0h40.95m-40.95-13.65v13.65m0-13.65h40.95m.203-90.122v13.65m-40.95 0h40.95m-40.95-13.65v13.65m0-13.648h40.95m14.295-96.94v13.65m-40.948 0h40.95m-40.95-13.65v13.65m0-13.653h40.95m-.002-98.543v13.65m-40.948 0h40.95m-40.95-13.65v13.65m0-13.652h40.95m-.002-96.614v13.65m-40.948 0h40.95m-40.95-13.65v13.65m0-13.65h40.95m-.002-96.336v13.65m-40.948 0h40.95m-40.95-13.65v13.65m0-13.652h40.95m-.002-96.79v13.65m-40.948 0h40.95m-40.95-13.65v13.65m0-13.648h40.95m-.002-98.187v13.65m-40.948 0h40.95m-40.95-13.65v13.65m0-13.652h40.95m-.002-97.753v13.65m-40.948 0h40.95m-40.95-13.65v13.65m0-13.652h40.95m-.002-90.79v13.65m-40.948 0h40.95m-40.95-13.65v13.65m0-13.65h40.95m374.305 35.32v13.65m-40.952 0h40.95m-40.95-13.65v13.65m0-13.65h40.95M914.605 664.616v13.65m-40.952 0h40.95m-40.95-13.65v13.65m0-13.65h40.95m4.167 138.9v13.65m-40.953 0h40.95m-40.95-13.65v13.65m0-13.648h40.95m-5.725 184.567v13.65m-40.95 0h40.95m-40.95-13.65v13.65m0-13.652h40.95" stroke="#000" stroke-width=".957" stroke-linecap="round" stroke-linejoin="round" pointer-events="none"></path><path id="path3253" d="M1143.743 1130.042h28.495v11.398h-28.495z" class="st1" fill="none" stroke-width=".75" data-room-id="Room-423"></path><text id="text3255" class="st7" y="1138.582" x="1143.743" font-weight="bold" font-size="9.499" font-family="Arial" pointer-events="none">423</text><path id="path3262" d="M1143.827 1145.698h27.62v11.047h-27.62z" class="st1" fill="none" stroke-width=".75"></path><text id="text3264" class="st8" y="1153.978" x="1143.827" font-size="9.206" font-family="Calibri" pointer-events="none">092</text><path class="st1" d="M646.06 1173.195h28.495v11.398H646.06z" id="path3274" fill="none" stroke-width=".75" data-room-id="Room-414c"></path><text y="1181.735" class="st7" id="text3276" x="646.06" font-weight="bold" font-size="9.499" font-family="Arial" pointer-events="none">414c</text><path class="st1" d="M661.828 1173.195h9.498v11.398h-9.498z" id="path3283" fill="none" stroke-width=".75"></path><path id="path3292" d="M648.77 1188.842h27.62v11.047h-27.62z" class="st1" fill="none" stroke-width=".75"></path><text id="text3294" class="st8" y="1197.122" x="648.769" font-size="9.206" font-family="Calibri" pointer-events="none">093</text><path class="st1" d="M645.98 1083.073h28.494v11.398H645.98z" id="path3304" fill="none" stroke-width=".75" data-room-id="Room-414b"></path><text y="1091.613" class="st7" id="text3306" x="645.979" font-weight="bold" font-size="9.499" font-family="Arial" pointer-events="none">414b</text><path class="st1" d="M661.746 1083.073h9.498v11.398h-9.498z" id="path3313" fill="none" stroke-width=".75"></path><path id="path3322" d="M648.97 1098.72h27.62v11.047h-27.62z" class="st1" fill="none" stroke-width=".75"></path><text id="text3324" class="st8" y="1107" x="648.971" font-size="9.206" font-family="Calibri" pointer-events="none">094</text><path class="st1" d="M660.558 986.126h28.495v11.398h-28.495z" id="path3334" fill="none" stroke-width=".75" data-room-id="Room-414a"></path><text y="994.666" class="st7" id="text3336" x="660.558" font-weight="bold" font-size="9.499" font-family="Arial" pointer-events="none">414a</text><path class="st1" d="M676.326 986.126h9.498v11.398h-9.498z" id="path3343" fill="none" stroke-width=".75"></path><path id="path3352" d="M663.266 1001.782h27.62v11.047h-27.62z" class="st1" fill="none" stroke-width=".75"></path><text id="text3354" class="st8" y="1010.062" x="663.266" font-size="9.206" font-family="Calibri" pointer-events="none">095</text><path id="path3361" d="M663.186 887.585h28.495v11.398h-28.49z" class="st1" fill="none" stroke-width=".75" data-room-id="Room-413"></path><text id="text3363" class="st7" y="896.125" x="663.186" font-weight="bold" font-size="9.499" font-family="Arial" pointer-events="none">413</text><path id="path3370" d="M663.266 903.238h27.62v11.047h-27.62z" class="st1" fill="none" stroke-width=".75"></path><text id="text3372" class="st8" y="911.518" x="663.266" font-size="9.206" font-family="Calibri" pointer-events="none">096</text><path id="path3379" d="M663.186 790.97h28.495v11.397h-28.49z" class="st1" fill="none" stroke-width=".75" data-room-id="Room-406"></path><text id="text3381" class="st7" y="799.509" x="663.186" font-weight="bold" font-size="9.499" font-family="Arial" pointer-events="none">406</text><path id="path3388" d="M663.266 806.623h27.62v11.047h-27.62z" class="st1" fill="none" stroke-width=".75"></path><text id="text3390" class="st8" y="814.903" x="663.266" font-size="9.206" font-family="Calibri" pointer-events="none">097</text><path id="path3397" d="M663.186 694.633h28.495v11.398h-28.49z" class="st1" fill="none" stroke-width=".75" data-room-id="Room-405"></path><text id="text3399" class="st7" y="703.173" x="663.186" font-weight="bold" font-size="9.499" font-family="Arial" pointer-events="none">405</text><path id="path3406" d="M663.266 710.286h27.62v11.047h-27.62z" class="st1" fill="none" stroke-width=".75"></path><text id="text3408" class="st8" y="718.566" x="663.266" font-size="9.206" font-family="Calibri" pointer-events="none">098</text><path id="path3415" d="M663.186 597.842h28.495v11.398h-28.49z" class="st1" fill="none" stroke-width=".75" data-room-id="Room-404"></path><text id="text3417" class="st7" y="606.382" x="663.186" font-weight="bold" font-size="9.499" font-family="Arial" pointer-events="none">404</text><path id="path3424" d="M663.266 613.495h27.62v11.047h-27.62z" class="st1" fill="none" stroke-width=".75"></path><text id="text3426" class="st8" y="621.775" x="663.266" font-size="9.206" font-family="Calibri" pointer-events="none">099</text><path id="path3433" d="M663.186 499.655h28.495v11.398h-28.49z" class="st1" fill="none" stroke-width=".75" data-room-id="Room-403"></path><text id="text3435" class="st7" y="508.195" x="663.186" font-weight="bold" font-size="9.499" font-family="Arial" pointer-events="none">403</text><path id="path3442" d="M663.266 515.308h27.62v11.047h-27.62z" class="st1" fill="none" stroke-width=".75"></path><text id="text3444" class="st8" y="523.588" x="663.266" font-size="9.206" font-family="Calibri" pointer-events="none">100</text><path id="path3451" d="M663.186 401.9h28.495v11.398h-28.49z" class="st1" fill="none" stroke-width=".75" data-room-id="Room-402"></path><text id="text3453" class="st7" y="410.44" x="663.186" font-weight="bold" font-size="9.499" font-family="Arial" pointer-events="none">402</text><path id="path3460" d="M663.266 417.553h27.62V428.6h-27.62z" class="st1" fill="none" stroke-width=".75"></path><text id="text3462" class="st8" y="425.833" x="663.266" font-size="9.206" font-family="Calibri" pointer-events="none">101</text><path id="path3469" d="M663.186 311.108h28.495v11.398h-28.49z" class="st1" fill="none" stroke-width=".75" data-room-id="Room-401"></path><text id="text3471" class="st7" y="319.648" x="663.186" font-weight="bold" font-size="9.499" font-family="Arial" pointer-events="none">401</text><path id="path3478" d="M663.266 326.758h27.62v11.047h-27.62z" class="st1" fill="none" stroke-width=".75"></path><text id="text3480" class="st8" y="335.038" x="663.266" font-size="9.206" font-family="Calibri" pointer-events="none">102</text><path id="path3487" d="M1037.495 346.428h28.495v11.398h-28.495z" class="st1" fill="none" stroke-width=".75" data-room-id="Room-424"></path><text id="text3489" class="st7" y="354.968" x="1037.495" font-weight="bold" font-size="9.499" font-family="Arial" pointer-events="none">424</text><path id="path3496" d="M1037.57 362.088h27.62v11.047h-27.62z" class="st1" fill="none" stroke-width=".75"></path><text id="text3498" class="st8" y="370.368" x="1037.57" font-size="9.206" font-family="Calibri" pointer-events="none">103</text><path class="st1" d="M883.624 650.487h28.495v11.398h-28.5z" id="path3508" fill="none" stroke-width=".75" data-room-id="Room-412a"></path><text y="659.027" class="st7" id="text3510" x="883.624" font-weight="bold" font-size="9.499" font-family="Arial" pointer-events="none">412a</text><path class="st1" d="M899.392 650.487h9.498v11.398h-9.498z" id="path3517" fill="none" stroke-width=".75"></path><path id="path3526" d="M886.333 666.14h27.62v11.048h-27.62z" class="st1" fill="none" stroke-width=".75"></path><text id="text3528" class="st8" y="674.421" x="886.333" font-size="9.206" font-family="Calibri" pointer-events="none">104</text><path class="st1" d="M887.788 789.39h28.495v11.397h-28.495z" id="path3538" fill="none" stroke-width=".75" data-room-id="Room-408a"></path><text y="797.929" class="st7" id="text3540" x="887.788" font-weight="bold" font-size="9.499" font-family="Arial" pointer-events="none">408a</text><path class="st1" d="M903.555 789.39h9.498v11.397h-9.498z" id="path3547" fill="none" stroke-width=".75"></path><path id="path3556" d="M890.495 805.042h27.62v11.047h-27.62z" class="st1" fill="none" stroke-width=".75"></path><text id="text3558" class="st8" y="813.322" x="890.495" font-size="9.206" font-family="Calibri" pointer-events="none">105</text><path id="path3565" d="M884.69 973.958h28.495v11.398H884.69z" class="st1" fill="none" stroke-width=".75" data-room-id="Room-415"></path><text id="text3567" class="st7" y="982.498" x="884.69" font-weight="bold" font-size="9.499" font-family="Arial" pointer-events="none">415</text><path id="path3574" d="M884.77 989.604h27.62v11.047h-27.62z" class="st1" fill="none" stroke-width=".75"></path><text id="text3576" class="st8" y="997.884" x="884.771" font-size="9.206" font-family="Calibri" pointer-events="none">106</text></g></svg>