<?xml version="1.0" encoding="UTF-8" standalone="no"?>
<!-- Created with Inkscape (http://www.inkscape.org/) -->

<svg
   xmlns:dc="http://purl.org/dc/elements/1.1/"
   xmlns:cc="http://creativecommons.org/ns#"
   xmlns:rdf="http://www.w3.org/1999/02/22-rdf-syntax-ns#"
   xmlns:svg="http://www.w3.org/2000/svg"
   xmlns="http://www.w3.org/2000/svg"
   xmlns:sodipodi="http://sodipodi.sourceforge.net/DTD/sodipodi-0.dtd"
   xmlns:inkscape="http://www.inkscape.org/namespaces/inkscape"
   width="32px"
   height="32px"
   id="svg4181"
   version="1.1"
   inkscape:version="0.48.4 r9939"
   sodipodi:docname="week.svg">
  <defs
     id="defs4183" />
  <sodipodi:namedview
     id="base"
     pagecolor="#ffffff"
     bordercolor="#666666"
     borderopacity="1.0"
     inkscape:pageopacity="0.0"
     inkscape:pageshadow="2"
     inkscape:zoom="5.598901"
     inkscape:cx="49.607067"
     inkscape:cy="18.400711"
     inkscape:current-layer="layer1"
     showgrid="true"
     inkscape:grid-bbox="true"
     inkscape:document-units="px"
     inkscape:window-width="1366"
     inkscape:window-height="719"
     inkscape:window-x="0"
     inkscape:window-y="25"
     inkscape:window-maximized="1" />
  <metadata
     id="metadata4186">
    <rdf:RDF>
      <cc:Work
         rdf:about="">
        <dc:format>image/svg+xml</dc:format>
        <dc:type
           rdf:resource="http://purl.org/dc/dcmitype/StillImage" />
        <dc:title></dc:title>
      </cc:Work>
    </rdf:RDF>
  </metadata>
  <g
     id="layer1"
     inkscape:label="Layer 1"
     inkscape:groupmode="layer">
    <g
       id="g5766"
       transform="translate(-30.259078,-3.854759)">
      <path
         inkscape:connector-curvature="0"
         id="path5956-6-5-6"
         d="m 33.552758,10.690408 0,21.067477 12.647062,0 0.118508,0 12.64707,0 0,-21.067477 -2.57583,0 0,0.209025 c 0,0.953265 -0.66093,1.719967 -1.482953,1.719967 -0.822015,0 -1.484595,-0.766702 -1.484595,-1.719967 l 0,-0.209025 -7.123447,0 -0.07896,0 -7.12344,0 0,0.209025 c 0,0.953265 -0.66258,1.719967 -1.484588,1.719967 -0.822022,0 -1.482952,-0.766702 -1.482952,-1.719967 l 0,-0.209025 -2.575838,0 z m 1.606395,3.50247 21.91182,0 0,15.8829 -21.91182,0 0,-15.8829 z"
         style="fill:#000000;fill-opacity:1;fill-rule:evenodd" />
      <path
         inkscape:connector-curvature="0"
         id="rect4208-2-0-7-0-39-3-4"
         d="m 36.615765,7.9516331 0,3.1963349 c 0,0.631808 0.43779,1.140608 0.982605,1.140608 0.544815,0 0.98424,-0.5088 0.98424,-1.140608 l 0,-3.1963349 -1.966845,0 z"
         style="fill:#000000;fill-opacity:1" />
      <path
         inkscape:connector-curvature="0"
         id="rect4208-2-0-7-0-3-0-8-4"
         d="m 53.953905,7.9516331 0,3.1963349 c 0,0.631808 0.437775,1.140608 0.98259,1.140608 0.544823,0 0.984248,-0.5088 0.984248,-1.140608 l 0,-3.1963349 -1.966838,0 z"
         style="fill:#000000;fill-opacity:1" />
      <text
         transform="scale(1.285052,0.77817862)"
         sodipodi:linespacing="125%"
         id="text5880-6-3"
         y="35.182205"
         x="31.670073"
         style="font-size:16.8663063px;font-style:normal;font-variant:normal;font-weight:normal;font-stretch:condensed;line-height:125%;letter-spacing:0px;word-spacing:0px;fill:#000000;fill-opacity:1;stroke:none;font-family:Impact;-inkscape-font-specification:Impact Condensed"
         xml:space="preserve"><tspan
           y="35.182205"
           x="31.670073"
           id="tspan5882-9-61"
           sodipodi:role="line">d</tspan></text>
    </g>
  </g>
</svg>
